<svg width="16" height="15" viewBox="0 0 16 15" fill="none" xmlns="http://www.w3.org/2000/svg">
<path d="M7.17998 10.95L12.4675 5.6625L11.4175 4.6125L7.17998 8.85L5.04248 6.7125L3.99248 7.7625L7.17998 10.95ZM8.22998 15C7.19248 15 6.21748 14.8031 5.30498 14.4094C4.39248 14.0156 3.59873 13.4813 2.92373 12.8063C2.24873 12.1313 1.71436 11.3375 1.32061 10.425C0.926856 9.5125 0.72998 8.5375 0.72998 7.5C0.72998 6.4625 0.926856 5.4875 1.32061 4.575C1.71436 3.6625 2.24873 2.86875 2.92373 2.19375C3.59873 1.51875 4.39248 0.984375 5.30498 0.590625C6.21748 0.196875 7.19248 0 8.22998 0C9.26748 0 10.2425 0.196875 11.155 0.590625C12.0675 0.984375 12.8612 1.51875 13.5362 2.19375C14.2112 2.86875 14.7456 3.6625 15.1394 4.575C15.5331 5.4875 15.73 6.4625 15.73 7.5C15.73 8.5375 15.5331 9.5125 15.1394 10.425C14.7456 11.3375 14.2112 12.1313 13.5362 12.8063C12.8612 13.4813 12.0675 14.0156 11.155 14.4094C10.2425 14.8031 9.26748 15 8.22998 15Z" fill="#1C1B1F"/>
</svg>
