<svg width="212" height="33" viewBox="0 0 212 33" fill="none" xmlns="http://www.w3.org/2000/svg">
<path d="M1.50428 19.9932L2.75585 16.3596H3.2479L4.49947 19.9932H4.1134L2.92491 16.5665H3.07126L1.89035 19.9932H1.50428ZM2.06193 19.1125V18.7643H3.93929V19.1125H2.06193ZM6.09651 20.0689C5.8425 20.0689 5.62549 20.0058 5.4455 19.8796C5.2655 19.7518 5.12756 19.5793 5.03167 19.3623C4.93578 19.1453 4.88784 18.9006 4.88784 18.628C4.88784 18.3572 4.93494 18.1133 5.02915 17.8963C5.12503 17.6793 5.26213 17.5077 5.44045 17.3815C5.61876 17.2554 5.83241 17.1923 6.08137 17.1923C6.33707 17.1923 6.5524 17.2545 6.72735 17.379C6.9023 17.5035 7.03435 17.6742 7.12351 17.8912C7.21435 18.1066 7.25977 18.3522 7.25977 18.628C7.25977 18.8989 7.21519 19.1436 7.12603 19.3623C7.03688 19.5793 6.90566 19.7518 6.73239 19.8796C6.55913 20.0058 6.34717 20.0689 6.09651 20.0689ZM6.13436 19.7232C6.32782 19.7232 6.48763 19.6761 6.6138 19.5819C6.73996 19.4877 6.83417 19.3581 6.89641 19.1933C6.95865 19.0267 6.98977 18.8383 6.98977 18.628C6.98977 18.4144 6.95865 18.226 6.89641 18.0628C6.83417 17.898 6.73996 17.7693 6.6138 17.6767C6.48931 17.5842 6.33203 17.538 6.14193 17.538C5.9468 17.538 5.7853 17.5859 5.65745 17.6818C5.52961 17.7777 5.43456 17.9081 5.37232 18.0729C5.31176 18.2378 5.28148 18.4228 5.28148 18.628C5.28148 18.835 5.3126 19.0217 5.37484 19.1882C5.43877 19.3531 5.53381 19.4835 5.65998 19.5793C5.78614 19.6752 5.94427 19.7232 6.13436 19.7232ZM6.98977 19.9932V17.9417H6.9494V16.3596H7.32285V19.9932H6.98977ZM9.17215 20.0689C8.91814 20.0689 8.70113 20.0058 8.52113 19.8796C8.34114 19.7518 8.20319 19.5793 8.10731 19.3623C8.01142 19.1453 7.96348 18.9006 7.96348 18.628C7.96348 18.3572 8.01058 18.1133 8.10478 17.8963C8.20067 17.6793 8.33777 17.5077 8.51609 17.3815C8.6944 17.2554 8.90804 17.1923 9.15701 17.1923C9.41271 17.1923 9.62803 17.2545 9.80298 17.379C9.97794 17.5035 10.11 17.6742 10.1991 17.8912C10.29 18.1066 10.3354 18.3522 10.3354 18.628C10.3354 18.8989 10.2908 19.1436 10.2017 19.3623C10.1125 19.5793 9.9813 19.7518 9.80803 19.8796C9.63476 20.0058 9.4228 20.0689 9.17215 20.0689ZM9.21 19.7232C9.40346 19.7232 9.56327 19.6761 9.68944 19.5819C9.8156 19.4877 9.90981 19.3581 9.97205 19.1933C10.0343 19.0267 10.0654 18.8383 10.0654 18.628C10.0654 18.4144 10.0343 18.226 9.97205 18.0628C9.90981 17.898 9.8156 17.7693 9.68944 17.6767C9.56495 17.5842 9.40766 17.538 9.21757 17.538C9.02243 17.538 8.86094 17.5859 8.73309 17.6818C8.60524 17.7777 8.5102 17.9081 8.44796 18.0729C8.3874 18.2378 8.35712 18.4228 8.35712 18.628C8.35712 18.835 8.38824 19.0217 8.45048 19.1882C8.5144 19.3531 8.60945 19.4835 8.73562 19.5793C8.86178 19.6752 9.01991 19.7232 9.21 19.7232ZM10.0654 19.9932V17.9417H10.025V16.3596H10.3985V19.9932H10.0654ZM13.0647 20.0689C12.8594 20.0689 12.687 20.0319 12.5474 19.9578C12.4094 19.8838 12.306 19.7854 12.237 19.6626C12.168 19.5398 12.1335 19.4061 12.1335 19.2614C12.1335 19.1134 12.163 18.9872 12.2219 18.8829C12.2824 18.7769 12.364 18.6903 12.4666 18.623C12.5709 18.5557 12.6912 18.5044 12.8275 18.4691C12.9654 18.4354 13.1176 18.406 13.2842 18.3808C13.4524 18.3538 13.6164 18.3311 13.7762 18.3126C13.9377 18.2924 14.079 18.2731 14.2002 18.2546L14.0689 18.3353C14.074 18.0662 14.0218 17.8668 13.9125 17.7373C13.8031 17.6078 13.6131 17.543 13.3422 17.543C13.1555 17.543 12.9974 17.5851 12.8678 17.6692C12.74 17.7533 12.65 17.8862 12.5978 18.0679L12.237 17.9619C12.2992 17.718 12.4246 17.5287 12.613 17.3941C12.8014 17.2596 13.0461 17.1923 13.3473 17.1923C13.5962 17.1923 13.8074 17.2394 13.9806 17.3336C14.1556 17.4261 14.2792 17.5607 14.3516 17.7373C14.3852 17.8164 14.4071 17.9047 14.4172 18.0023C14.4273 18.0998 14.4323 18.1991 14.4323 18.3V19.9932H14.1017V19.3093L14.1976 19.3497C14.1051 19.5835 13.9613 19.7619 13.7661 19.8847C13.571 20.0075 13.3372 20.0689 13.0647 20.0689ZM13.1075 19.7484C13.2808 19.7484 13.4322 19.7173 13.5617 19.655C13.6913 19.5928 13.7956 19.5078 13.8746 19.4002C13.9537 19.2908 14.005 19.168 14.0286 19.0318C14.0488 18.9443 14.0597 18.8484 14.0614 18.7441C14.0631 18.6381 14.0639 18.5591 14.0639 18.5069L14.2052 18.5801C14.079 18.5969 13.9419 18.6137 13.7939 18.6306C13.6475 18.6474 13.5029 18.6667 13.3599 18.6886C13.2186 18.7105 13.0907 18.7365 12.9763 18.7668C12.899 18.7887 12.8241 18.8198 12.7518 18.8602C12.6794 18.8989 12.6197 18.951 12.5726 19.0166C12.5272 19.0822 12.5045 19.1638 12.5045 19.2614C12.5045 19.3405 12.5238 19.417 12.5625 19.491C12.6029 19.565 12.6668 19.6264 12.7543 19.6752C12.8434 19.724 12.9612 19.7484 13.1075 19.7484ZM16.3971 20.0689C16.1465 20.0689 15.9345 20.0058 15.7612 19.8796C15.588 19.7518 15.4568 19.5793 15.3676 19.3623C15.2784 19.1436 15.2339 18.8989 15.2339 18.628C15.2339 18.3522 15.2784 18.1066 15.3676 17.8912C15.4584 17.6742 15.5913 17.5035 15.7663 17.379C15.9412 17.2545 16.1566 17.1923 16.4123 17.1923C16.6612 17.1923 16.8749 17.2554 17.0532 17.3815C17.2315 17.5077 17.3678 17.6793 17.462 17.8963C17.5578 18.1133 17.6058 18.3572 17.6058 18.628C17.6058 18.9006 17.5578 19.1453 17.462 19.3623C17.3661 19.5793 17.2281 19.7518 17.0481 19.8796C16.8681 20.0058 16.6511 20.0689 16.3971 20.0689ZM15.1708 21.2044V17.268H15.5039V19.3194H15.5442V21.2044H15.1708ZM16.3593 19.7232C16.5494 19.7232 16.7075 19.6752 16.8337 19.5793C16.9598 19.4835 17.054 19.3531 17.1163 19.1882C17.1802 19.0217 17.2122 18.835 17.2122 18.628C17.2122 18.4228 17.181 18.2378 17.1188 18.0729C17.0565 17.9081 16.9615 17.7777 16.8337 17.6818C16.7075 17.5859 16.5468 17.538 16.3517 17.538C16.1616 17.538 16.0035 17.5842 15.8773 17.6767C15.7528 17.7693 15.6595 17.898 15.5972 18.0628C15.535 18.226 15.5039 18.4144 15.5039 18.628C15.5039 18.8383 15.535 19.0267 15.5972 19.1933C15.6595 19.3581 15.7537 19.4877 15.8798 19.5819C16.006 19.6761 16.1658 19.7232 16.3593 19.7232ZM19.4678 20.0689C19.2172 20.0689 19.0052 20.0058 18.8319 19.8796C18.6587 19.7518 18.5275 19.5793 18.4383 19.3623C18.3492 19.1436 18.3046 18.8989 18.3046 18.628C18.3046 18.3522 18.3492 18.1066 18.4383 17.8912C18.5291 17.6742 18.662 17.5035 18.837 17.379C19.0119 17.2545 19.2273 17.1923 19.483 17.1923C19.7319 17.1923 19.9456 17.2554 20.1239 17.3815C20.3022 17.5077 20.4385 17.6793 20.5327 17.8963C20.6286 18.1133 20.6765 18.3572 20.6765 18.628C20.6765 18.9006 20.6286 19.1453 20.5327 19.3623C20.4368 19.5793 20.2988 19.7518 20.1188 19.8796C19.9388 20.0058 19.7218 20.0689 19.4678 20.0689ZM18.2415 21.2044V17.268H18.5746V19.3194H18.6149V21.2044H18.2415ZM19.43 19.7232C19.6201 19.7232 19.7782 19.6752 19.9044 19.5793C20.0305 19.4835 20.1247 19.3531 20.187 19.1882C20.2509 19.0217 20.2829 18.835 20.2829 18.628C20.2829 18.4228 20.2517 18.2378 20.1895 18.0729C20.1273 17.9081 20.0322 17.7777 19.9044 17.6818C19.7782 17.5859 19.6175 17.538 19.4224 17.538C19.2323 17.538 19.0742 17.5842 18.948 17.6767C18.8235 17.7693 18.7302 17.898 18.6679 18.0628C18.6057 18.226 18.5746 18.4144 18.5746 18.628C18.5746 18.8383 18.6057 19.0267 18.6679 19.1933C18.7302 19.3581 18.8244 19.4877 18.9505 19.5819C19.0767 19.6761 19.2365 19.7232 19.43 19.7232ZM21.3652 19.9932V16.2839H21.7361V19.9932H21.3652ZM22.6272 16.7507V16.3343H22.9981V16.7507H22.6272ZM22.6272 19.9932V17.268H22.9981V19.9932H22.6272ZM24.9692 20.0689C24.695 20.0689 24.4628 20.0075 24.2727 19.8847C24.0826 19.7619 23.938 19.5928 23.8387 19.3775C23.7411 19.1605 23.6907 18.9115 23.6873 18.6306C23.6907 18.3446 23.7428 18.0939 23.8438 17.8786C23.9447 17.6616 24.0902 17.4934 24.2803 17.3739C24.4704 17.2528 24.7008 17.1923 24.9717 17.1923C25.2476 17.1923 25.4873 17.2596 25.6908 17.3941C25.8961 17.5287 26.0365 17.7129 26.1122 17.9467L25.7489 18.0628C25.6849 17.8996 25.5832 17.7735 25.4435 17.6843C25.3056 17.5935 25.1475 17.5481 24.9692 17.5481C24.769 17.5481 24.6033 17.5943 24.4721 17.6868C24.3409 17.7777 24.2433 17.9047 24.1794 18.0679C24.1154 18.231 24.0826 18.4186 24.0809 18.6306C24.0843 18.9569 24.16 19.2193 24.308 19.4178C24.4561 19.6147 24.6765 19.7131 24.9692 19.7131C25.1542 19.7131 25.3115 19.671 25.441 19.5869C25.5722 19.5011 25.6715 19.3766 25.7388 19.2135L26.1122 19.3245C26.0113 19.5667 25.8633 19.7518 25.6681 19.8796C25.473 20.0058 25.24 20.0689 24.9692 20.0689ZM27.4821 20.0689C27.2769 20.0689 27.1045 20.0319 26.9649 19.9578C26.8269 19.8838 26.7235 19.7854 26.6545 19.6626C26.5855 19.5398 26.551 19.4061 26.551 19.2614C26.551 19.1134 26.5805 18.9872 26.6393 18.8829C26.6999 18.7769 26.7815 18.6903 26.8841 18.623C26.9884 18.5557 27.1087 18.5044 27.2449 18.4691C27.3829 18.4354 27.5351 18.406 27.7017 18.3808C27.8699 18.3538 28.0339 18.3311 28.1937 18.3126C28.3552 18.2924 28.4965 18.2731 28.6176 18.2546L28.4864 18.3353C28.4915 18.0662 28.4393 17.8668 28.33 17.7373C28.2206 17.6078 28.0305 17.543 27.7597 17.543C27.573 17.543 27.4148 17.5851 27.2853 17.6692C27.1575 17.7533 27.0675 17.8862 27.0153 18.0679L26.6545 17.9619C26.7167 17.718 26.842 17.5287 27.0305 17.3941C27.2189 17.2596 27.4636 17.1923 27.7647 17.1923C28.0137 17.1923 28.2248 17.2394 28.3981 17.3336C28.5731 17.4261 28.6967 17.5607 28.769 17.7373C28.8027 17.8164 28.8245 17.9047 28.8346 18.0023C28.8447 18.0998 28.8498 18.1991 28.8498 18.3V19.9932H28.5192V19.3093L28.6151 19.3497C28.5226 19.5835 28.3788 19.7619 28.1836 19.8847C27.9885 20.0075 27.7547 20.0689 27.4821 20.0689ZM27.525 19.7484C27.6983 19.7484 27.8497 19.7173 27.9792 19.655C28.1088 19.5928 28.2131 19.5078 28.2921 19.4002C28.3712 19.2908 28.4225 19.168 28.446 19.0318C28.4662 18.9443 28.4772 18.8484 28.4789 18.7441C28.4805 18.6381 28.4814 18.5591 28.4814 18.5069L28.6227 18.5801C28.4965 18.5969 28.3594 18.6137 28.2114 18.6306C28.065 18.6474 27.9204 18.6667 27.7774 18.6886C27.6361 18.7105 27.5082 18.7365 27.3938 18.7668C27.3164 18.7887 27.2416 18.8198 27.1692 18.8602C27.0969 18.8989 27.0372 18.951 26.9901 19.0166C26.9447 19.0822 26.922 19.1638 26.922 19.2614C26.922 19.3405 26.9413 19.417 26.98 19.491C27.0204 19.565 27.0843 19.6264 27.1718 19.6752C27.2609 19.724 27.3787 19.7484 27.525 19.7484ZM31.0745 19.9932C30.9214 20.0251 30.77 20.0377 30.6203 20.031C30.4723 20.0243 30.3394 19.9923 30.2216 19.9351C30.1055 19.8779 30.0172 19.7888 29.9567 19.6677C29.9079 19.5667 29.881 19.4649 29.8759 19.3623C29.8726 19.258 29.8709 19.1394 29.8709 19.0065V16.511H30.2393V18.9914C30.2393 19.1058 30.2401 19.2017 30.2418 19.2791C30.2452 19.3548 30.2628 19.4221 30.2948 19.4809C30.3554 19.5936 30.4512 19.6609 30.5825 19.6828C30.7153 19.7047 30.8794 19.6996 31.0745 19.6677V19.9932ZM29.288 17.5859V17.268H31.0745V17.5859H29.288ZM31.746 16.7507V16.3343H32.1169V16.7507H31.746ZM31.746 19.9932V17.268H32.1169V19.9932H31.746ZM34.0955 20.0689C33.8247 20.0689 33.5934 20.0075 33.4016 19.8847C33.2099 19.7619 33.0627 19.592 32.96 19.3749C32.8574 19.1579 32.8061 18.909 32.8061 18.628C32.8061 18.3421 32.8583 18.0914 32.9626 17.8761C33.0669 17.6608 33.2149 17.4934 33.4067 17.3739C33.6001 17.2528 33.8298 17.1923 34.0955 17.1923C34.3681 17.1923 34.6002 17.2537 34.792 17.3765C34.9854 17.4976 35.1326 17.6667 35.2336 17.8837C35.3362 18.099 35.3875 18.3471 35.3875 18.628C35.3875 18.914 35.3362 19.1655 35.2336 19.3825C35.131 19.5978 34.9829 19.7661 34.7895 19.8872C34.596 20.0083 34.3647 20.0689 34.0955 20.0689ZM34.0955 19.7131C34.3983 19.7131 34.6238 19.613 34.7718 19.4128C34.9198 19.2109 34.9939 18.9493 34.9939 18.628C34.9939 18.2983 34.919 18.0359 34.7693 17.8408C34.6212 17.6456 34.3967 17.5481 34.0955 17.5481C33.892 17.5481 33.7238 17.5943 33.5909 17.6868C33.4597 17.7777 33.3613 17.9047 33.2957 18.0679C33.2317 18.2294 33.1998 18.4161 33.1998 18.628C33.1998 18.9561 33.2755 19.2193 33.4269 19.4178C33.5783 19.6147 33.8012 19.7131 34.0955 19.7131ZM37.9964 19.9932V18.6028C37.9964 18.4514 37.9821 18.3126 37.9535 18.1865C37.9249 18.0586 37.8787 17.9476 37.8148 17.8534C37.7525 17.7575 37.6709 17.6835 37.57 17.6313C37.4707 17.5792 37.3496 17.5531 37.2066 17.5531C37.0754 17.5531 36.9593 17.5758 36.8584 17.6212C36.7592 17.6667 36.675 17.7323 36.6061 17.8181C36.5388 17.9022 36.4875 18.0048 36.4522 18.1259C36.4168 18.247 36.3992 18.385 36.3992 18.5397L36.1367 18.4817C36.1367 18.2024 36.1855 17.9678 36.2831 17.7777C36.3807 17.5876 36.5152 17.4438 36.6868 17.3462C36.8584 17.2486 37.0552 17.1998 37.2773 17.1998C37.4405 17.1998 37.5826 17.2251 37.7037 17.2755C37.8265 17.326 37.93 17.3941 38.0141 17.4799C38.0999 17.5657 38.1689 17.6641 38.221 17.7752C38.2732 17.8845 38.311 18.0014 38.3346 18.1259C38.3581 18.2487 38.3699 18.3715 38.3699 18.4943V19.9932H37.9964ZM36.0257 19.9932V17.268H36.3613V17.9392H36.3992V19.9932H36.0257ZM13.3077 29.0689C13.0537 29.0689 12.8367 29.0058 12.6567 28.8796C12.4767 28.7518 12.3388 28.5793 12.2429 28.3623C12.147 28.1453 12.099 27.9006 12.099 27.628C12.099 27.3572 12.1461 27.1133 12.2404 26.8963C12.3362 26.6793 12.4733 26.5077 12.6517 26.3815C12.83 26.2554 13.0436 26.1923 13.2926 26.1923C13.5483 26.1923 13.7636 26.2545 13.9386 26.379C14.1135 26.5035 14.2456 26.6742 14.3347 26.8912C14.4256 27.1066 14.471 27.3522 14.471 27.628C14.471 27.8989 14.4264 28.1436 14.3372 28.3623C14.2481 28.5793 14.1169 28.7518 13.9436 28.8796C13.7703 29.0058 13.5584 29.0689 13.3077 29.0689ZM13.3456 28.7232C13.539 28.7232 13.6988 28.6761 13.825 28.5819C13.9512 28.4877 14.0454 28.3581 14.1076 28.1933C14.1699 28.0267 14.201 27.8383 14.201 27.628C14.201 27.4144 14.1699 27.226 14.1076 27.0628C14.0454 26.898 13.9512 26.7693 13.825 26.6767C13.7005 26.5842 13.5432 26.538 13.3531 26.538C13.158 26.538 12.9965 26.5859 12.8687 26.6818C12.7408 26.7777 12.6458 26.9081 12.5835 27.0729C12.523 27.2378 12.4927 27.4228 12.4927 27.628C12.4927 27.835 12.5238 28.0217 12.586 28.1882C12.65 28.3531 12.745 28.4835 12.8712 28.5793C12.9974 28.6752 13.1555 28.7232 13.3456 28.7232ZM14.201 28.9932V26.9417H14.1606V25.3596H14.5341V28.9932H14.201ZM16.4792 29.0689C16.2135 29.0689 15.983 29.01 15.7879 28.8922C15.5944 28.7745 15.4438 28.6088 15.3362 28.3951C15.2285 28.1815 15.1747 27.9308 15.1747 27.6432C15.1747 27.3454 15.2277 27.088 15.3337 26.871C15.4396 26.654 15.5885 26.4867 15.7803 26.3689C15.9737 26.2511 16.2017 26.1923 16.4641 26.1923C16.7333 26.1923 16.9629 26.2545 17.153 26.379C17.3431 26.5018 17.4869 26.6784 17.5845 26.9089C17.682 27.1394 17.7266 27.4144 17.7182 27.734H17.3397V27.6028C17.333 27.2495 17.2564 26.9829 17.1101 26.8029C16.9654 26.6229 16.7534 26.5329 16.4742 26.5329C16.1815 26.5329 15.9569 26.628 15.8005 26.8181C15.6457 27.0081 15.5683 27.279 15.5683 27.6306C15.5683 27.9737 15.6457 28.2404 15.8005 28.4305C15.9569 28.6189 16.1781 28.7131 16.4641 28.7131C16.6592 28.7131 16.8291 28.6685 16.9738 28.5793C17.1202 28.4885 17.2354 28.3581 17.3195 28.1882L17.6652 28.322C17.5575 28.5592 17.3986 28.7434 17.1883 28.8746C16.9797 29.0041 16.7434 29.0689 16.4792 29.0689ZM15.4371 27.734V27.4237H17.5189V27.734H15.4371ZM19.846 28.9932C19.6929 29.0251 19.5415 29.0377 19.3918 29.031C19.2438 29.0243 19.1109 28.9923 18.9931 28.9351C18.8771 28.8779 18.7887 28.7888 18.7282 28.6677C18.6794 28.5667 18.6525 28.4649 18.6474 28.3623C18.6441 28.258 18.6424 28.1394 18.6424 28.0065V25.511H19.0108V27.9914C19.0108 28.1058 19.0116 28.2017 19.0133 28.2791C19.0167 28.3548 19.0343 28.4221 19.0663 28.4809C19.1269 28.5936 19.2227 28.6609 19.354 28.6828C19.4869 28.7047 19.6509 28.6996 19.846 28.6677V28.9932ZM18.0595 26.5859V26.268H19.846V26.5859H18.0595ZM21.2467 29.0689C21.0415 29.0689 20.8691 29.0319 20.7295 28.9578C20.5915 28.8838 20.4881 28.7854 20.4191 28.6626C20.3501 28.5398 20.3156 28.4061 20.3156 28.2614C20.3156 28.1134 20.3451 27.9872 20.404 27.8829C20.4645 27.7769 20.5461 27.6903 20.6487 27.623C20.753 27.5557 20.8733 27.5044 21.0096 27.4691C21.1475 27.4354 21.2997 27.406 21.4663 27.3808C21.6345 27.3538 21.7985 27.3311 21.9583 27.3126C22.1198 27.2924 22.2611 27.2731 22.3822 27.2546L22.251 27.3353C22.2561 27.0662 22.2039 26.8668 22.0946 26.7373C21.9852 26.6078 21.7952 26.543 21.5243 26.543C21.3376 26.543 21.1795 26.5851 21.0499 26.6692C20.9221 26.7533 20.8321 26.8862 20.7799 27.0679L20.4191 26.9619C20.4813 26.718 20.6067 26.5287 20.7951 26.3941C20.9835 26.2596 21.2282 26.1923 21.5294 26.1923C21.7783 26.1923 21.9894 26.2394 22.1627 26.3336C22.3377 26.4261 22.4613 26.5607 22.5336 26.7373C22.5673 26.8164 22.5892 26.9047 22.5993 27.0023C22.6093 27.0998 22.6144 27.1991 22.6144 27.3V28.9932H22.2838V28.3093L22.3797 28.3497C22.2872 28.5835 22.1434 28.7619 21.9482 28.8847C21.7531 29.0075 21.5193 29.0689 21.2467 29.0689ZM21.2896 28.7484C21.4629 28.7484 21.6143 28.7173 21.7438 28.655C21.8734 28.5928 21.9777 28.5078 22.0567 28.4002C22.1358 28.2908 22.1871 28.168 22.2107 28.0318C22.2308 27.9443 22.2418 27.8484 22.2435 27.7441C22.2451 27.6381 22.246 27.5591 22.246 27.5069L22.3873 27.5801C22.2611 27.5969 22.124 27.6137 21.976 27.6306C21.8296 27.6474 21.685 27.6667 21.542 27.6886C21.4007 27.7105 21.2728 27.7365 21.1584 27.7668C21.0811 27.7887 21.0062 27.8198 20.9339 27.8602C20.8615 27.8989 20.8018 27.951 20.7547 28.0166C20.7093 28.0822 20.6866 28.1638 20.6866 28.2614C20.6866 28.3405 20.7059 28.417 20.7446 28.491C20.785 28.565 20.8489 28.6264 20.9364 28.6752C21.0255 28.724 21.1433 28.7484 21.2896 28.7484ZM23.4059 25.7507V25.3343H23.7768V25.7507H23.4059ZM23.4059 28.9932V26.268H23.7768V28.9932H23.4059ZM24.6679 28.9932V25.2839H25.0388V28.9932H24.6679ZM26.8963 29.0663C26.5767 29.0663 26.3134 28.9974 26.1065 28.8594C25.9013 28.7215 25.7751 28.5297 25.728 28.2841L26.1065 28.221C26.1469 28.3758 26.2385 28.4994 26.3815 28.592C26.5262 28.6828 26.7045 28.7282 26.9165 28.7282C27.1234 28.7282 27.2866 28.6853 27.406 28.5995C27.5254 28.512 27.5852 28.3935 27.5852 28.2437C27.5852 28.1596 27.5658 28.0915 27.5271 28.0393C27.4901 27.9855 27.4136 27.9359 27.2975 27.8905C27.1814 27.845 27.0082 27.7912 26.7777 27.729C26.5304 27.6617 26.3369 27.5944 26.1973 27.5271C26.0577 27.4598 25.9584 27.3824 25.8996 27.295C25.8407 27.2058 25.8113 27.0973 25.8113 26.9695C25.8113 26.8147 25.855 26.6793 25.9425 26.5632C26.0299 26.4454 26.1511 26.3546 26.3058 26.2907C26.4606 26.2251 26.6406 26.1923 26.8458 26.1923C27.0511 26.1923 27.2344 26.2259 27.3959 26.2932C27.5591 26.3588 27.6903 26.4513 27.7895 26.5708C27.8888 26.6902 27.9477 26.829 27.9662 26.9871L27.5877 27.0552C27.5624 26.8954 27.4825 26.7693 27.348 26.6767C27.2151 26.5825 27.046 26.5338 26.8408 26.5304C26.6473 26.5253 26.49 26.5624 26.3689 26.6414C26.2478 26.7188 26.1872 26.8223 26.1872 26.9518C26.1872 27.0241 26.2091 27.0864 26.2528 27.1385C26.2966 27.189 26.3756 27.2369 26.49 27.2823C26.6061 27.3278 26.771 27.3774 26.9846 27.4312C27.2353 27.4951 27.4321 27.5624 27.5751 27.6331C27.7181 27.7037 27.8198 27.787 27.8804 27.8829C27.9409 27.9788 27.9712 28.0974 27.9712 28.2387C27.9712 28.4961 27.8753 28.6988 27.6836 28.8468C27.4935 28.9932 27.231 29.0663 26.8963 29.0663Z" fill="#475569"/>
<path d="M87.9113 20.0689C87.5496 20.0689 87.2443 19.989 86.9953 19.8291C86.7464 19.6677 86.558 19.4448 86.4301 19.1605C86.3023 18.8762 86.2383 18.5481 86.2383 18.1764C86.2383 17.8046 86.3023 17.4766 86.4301 17.1923C86.558 16.908 86.7464 16.6859 86.9953 16.5261C87.2443 16.3646 87.5496 16.2839 87.9113 16.2839C88.3336 16.2839 88.6784 16.3924 88.9459 16.6094C89.2134 16.8247 89.3967 17.114 89.496 17.4774L89.1175 17.5758C89.0401 17.2882 88.9013 17.0602 88.7011 16.892C88.5009 16.7238 88.2377 16.6397 87.9113 16.6397C87.627 16.6397 87.3907 16.7044 87.2023 16.834C87.0138 16.9635 86.8717 17.1443 86.7758 17.3765C86.6816 17.6069 86.6328 17.8736 86.6295 18.1764C86.6278 18.4792 86.674 18.7458 86.7682 18.9763C86.8641 19.2067 87.0071 19.3876 87.1972 19.5188C87.389 19.6483 87.627 19.7131 87.9113 19.7131C88.2377 19.7131 88.5009 19.629 88.7011 19.4607C88.9013 19.2908 89.0401 19.0629 89.1175 18.7769L89.496 18.8753C89.3967 19.2387 89.2134 19.5289 88.9459 19.7459C88.6784 19.9612 88.3336 20.0689 87.9113 20.0689ZM91.2748 20.0689C91.004 20.0689 90.7727 20.0075 90.5809 19.8847C90.3892 19.7619 90.242 19.592 90.1393 19.3749C90.0367 19.1579 89.9854 18.909 89.9854 18.628C89.9854 18.3421 90.0376 18.0914 90.1419 17.8761C90.2462 17.6608 90.3942 17.4934 90.586 17.3739C90.7794 17.2528 91.0091 17.1923 91.2748 17.1923C91.5474 17.1923 91.7795 17.2537 91.9713 17.3765C92.1647 17.4976 92.3119 17.6667 92.4129 17.8837C92.5155 18.099 92.5668 18.3471 92.5668 18.628C92.5668 18.914 92.5155 19.1655 92.4129 19.3825C92.3103 19.5978 92.1622 19.7661 91.9688 19.8872C91.7753 20.0083 91.544 20.0689 91.2748 20.0689ZM91.2748 19.7131C91.5776 19.7131 91.8031 19.613 91.9511 19.4128C92.0991 19.2109 92.1732 18.9493 92.1732 18.628C92.1732 18.2983 92.0983 18.0359 91.9486 17.8408C91.8005 17.6456 91.576 17.5481 91.2748 17.5481C91.0713 17.5481 90.9031 17.5943 90.7702 17.6868C90.639 17.7777 90.5406 17.9047 90.475 18.0679C90.411 18.2294 90.3791 18.4161 90.3791 18.628C90.3791 18.9561 90.4548 19.2193 90.6062 19.4178C90.7576 19.6147 90.9805 19.7131 91.2748 19.7131ZM96.4576 19.9932L96.4601 18.2041C96.4601 17.9938 96.4012 17.829 96.2835 17.7095C96.1674 17.5884 96.0194 17.5279 95.8394 17.5279C95.7368 17.5279 95.6367 17.5514 95.5391 17.5985C95.4415 17.6456 95.3608 17.7213 95.2969 17.8256C95.2346 17.9299 95.2035 18.0662 95.2035 18.2344L94.984 18.1713C94.9789 17.9762 95.0168 17.8054 95.0975 17.6591C95.1799 17.5127 95.2926 17.3992 95.4356 17.3184C95.5803 17.236 95.7435 17.1948 95.9252 17.1948C96.1994 17.1948 96.4189 17.2797 96.5838 17.4496C96.7486 17.6179 96.831 17.8458 96.831 18.1335L96.8285 19.9932H96.4576ZM93.205 19.9932V17.268H93.5381V17.9392H93.5785V19.9932H93.205ZM94.8351 19.9932L94.8376 18.2294C94.8376 18.0123 94.7796 17.8416 94.6635 17.7171C94.5491 17.591 94.3977 17.5279 94.2093 17.5279C94.0209 17.5279 93.8686 17.5926 93.7526 17.7222C93.6365 17.85 93.5785 18.0208 93.5785 18.2344L93.3564 18.1133C93.3564 17.9383 93.3976 17.7819 93.4801 17.6439C93.5625 17.5043 93.6752 17.395 93.8182 17.3159C93.9612 17.2352 94.1235 17.1948 94.3052 17.1948C94.4785 17.1948 94.6324 17.2318 94.767 17.3058C94.9032 17.3798 95.01 17.4875 95.0874 17.6288C95.1648 17.7701 95.2035 17.9417 95.2035 18.1436L95.201 19.9932H94.8351ZM98.7933 20.0689C98.5426 20.0689 98.3307 20.0058 98.1574 19.8796C97.9841 19.7518 97.8529 19.5793 97.7638 19.3623C97.6746 19.1436 97.63 18.8989 97.63 18.628C97.63 18.3522 97.6746 18.1066 97.7638 17.8912C97.8546 17.6742 97.9875 17.5035 98.1625 17.379C98.3374 17.2545 98.5527 17.1923 98.8084 17.1923C99.0574 17.1923 99.271 17.2554 99.4494 17.3815C99.6277 17.5077 99.7639 17.6793 99.8581 17.8963C99.954 18.1133 100.002 18.3572 100.002 18.628C100.002 18.9006 99.954 19.1453 99.8581 19.3623C99.7623 19.5793 99.6243 19.7518 99.4443 19.8796C99.2643 20.0058 99.0473 20.0689 98.7933 20.0689ZM97.567 21.2044V17.268H97.9V19.3194H97.9404V21.2044H97.567ZM98.7554 19.7232C98.9455 19.7232 99.1037 19.6752 99.2298 19.5793C99.356 19.4835 99.4502 19.3531 99.5124 19.1882C99.5764 19.0217 99.6083 18.835 99.6083 18.628C99.6083 18.4228 99.5772 18.2378 99.515 18.0729C99.4527 17.9081 99.3577 17.7777 99.2298 17.6818C99.1037 17.5859 98.943 17.538 98.7479 17.538C98.5578 17.538 98.3997 17.5842 98.2735 17.6767C98.149 17.7693 98.0556 17.898 97.9934 18.0628C97.9312 18.226 97.9 18.4144 97.9 18.628C97.9 18.8383 97.9312 19.0267 97.9934 19.1933C98.0556 19.3581 98.1498 19.4877 98.276 19.5819C98.4022 19.6761 98.562 19.7232 98.7554 19.7232ZM100.691 19.9932V16.2839H101.062V19.9932H100.691ZM103.055 20.0689C102.79 20.0689 102.559 20.01 102.364 19.8922C102.17 19.7745 102.02 19.6088 101.912 19.3951C101.805 19.1815 101.751 18.9308 101.751 18.6432C101.751 18.3454 101.804 18.088 101.91 17.871C102.016 17.654 102.165 17.4867 102.356 17.3689C102.55 17.2511 102.778 17.1923 103.04 17.1923C103.309 17.1923 103.539 17.2545 103.729 17.379C103.919 17.5018 104.063 17.6784 104.161 17.9089C104.258 18.1394 104.303 18.4144 104.294 18.734H103.916V18.6028C103.909 18.2495 103.833 17.9829 103.686 17.8029C103.542 17.6229 103.33 17.5329 103.05 17.5329C102.758 17.5329 102.533 17.628 102.377 17.8181C102.222 18.0081 102.144 18.279 102.144 18.6306C102.144 18.9737 102.222 19.2404 102.377 19.4305C102.533 19.6189 102.754 19.7131 103.04 19.7131C103.235 19.7131 103.405 19.6685 103.55 19.5793C103.696 19.4885 103.812 19.3581 103.896 19.1882L104.241 19.322C104.134 19.5592 103.975 19.7434 103.764 19.8746C103.556 20.0041 103.319 20.0689 103.055 20.0689ZM102.013 18.734V18.4237H104.095V18.734H102.013ZM106.422 19.9932C106.269 20.0251 106.118 20.0377 105.968 20.031C105.82 20.0243 105.687 19.9923 105.569 19.9351C105.453 19.8779 105.365 19.7888 105.304 19.6677C105.255 19.5667 105.229 19.4649 105.224 19.3623C105.22 19.258 105.218 19.1394 105.218 19.0065V16.511H105.587V18.9914C105.587 19.1058 105.588 19.2017 105.589 19.2791C105.593 19.3548 105.61 19.4221 105.642 19.4809C105.703 19.5936 105.799 19.6609 105.93 19.6828C106.063 19.7047 106.227 19.6996 106.422 19.6677V19.9932ZM104.636 17.5859V17.268H106.422V17.5859H104.636ZM108.098 20.0689C107.832 20.0689 107.601 20.01 107.406 19.8922C107.213 19.7745 107.062 19.6088 106.955 19.3951C106.847 19.1815 106.793 18.9308 106.793 18.6432C106.793 18.3454 106.846 18.088 106.952 17.871C107.058 17.654 107.207 17.4867 107.399 17.3689C107.592 17.2511 107.82 17.1923 108.083 17.1923C108.352 17.1923 108.581 17.2545 108.771 17.379C108.962 17.5018 109.105 17.6784 109.203 17.9089C109.301 18.1394 109.345 18.4144 109.337 18.734H108.958V18.6028C108.951 18.2495 108.875 17.9829 108.729 17.8029C108.584 17.6229 108.372 17.5329 108.093 17.5329C107.8 17.5329 107.575 17.628 107.419 17.8181C107.264 18.0081 107.187 18.279 107.187 18.6306C107.187 18.9737 107.264 19.2404 107.419 19.4305C107.575 19.6189 107.797 19.7131 108.083 19.7131C108.278 19.7131 108.448 19.6685 108.592 19.5793C108.739 19.4885 108.854 19.3581 108.938 19.1882L109.284 19.322C109.176 19.5592 109.017 19.7434 108.807 19.8746C108.598 20.0041 108.362 20.0689 108.098 20.0689ZM107.056 18.734V18.4237H109.137V18.734H107.056ZM111.855 20.0689C111.65 20.0689 111.477 20.0319 111.338 19.9578C111.2 19.8838 111.096 19.7854 111.027 19.6626C110.958 19.5398 110.924 19.4061 110.924 19.2614C110.924 19.1134 110.953 18.9872 111.012 18.8829C111.073 18.7769 111.154 18.6903 111.257 18.623C111.361 18.5557 111.481 18.5044 111.618 18.4691C111.756 18.4354 111.908 18.406 112.074 18.3808C112.243 18.3538 112.407 18.3311 112.567 18.3126C112.728 18.2924 112.869 18.2731 112.99 18.2546L112.859 18.3353C112.864 18.0662 112.812 17.8668 112.703 17.7373C112.593 17.6078 112.403 17.543 112.132 17.543C111.946 17.543 111.788 17.5851 111.658 17.6692C111.53 17.7533 111.44 17.8862 111.388 18.0679L111.027 17.9619C111.09 17.718 111.215 17.5287 111.403 17.3941C111.592 17.2596 111.836 17.1923 112.138 17.1923C112.387 17.1923 112.598 17.2394 112.771 17.3336C112.946 17.4261 113.069 17.5607 113.142 17.7373C113.175 17.8164 113.197 17.9047 113.207 18.0023C113.218 18.0998 113.223 18.1991 113.223 18.3V19.9932H112.892V19.3093L112.988 19.3497C112.895 19.5835 112.752 19.7619 112.556 19.8847C112.361 20.0075 112.127 20.0689 111.855 20.0689ZM111.898 19.7484C112.071 19.7484 112.222 19.7173 112.352 19.655C112.482 19.5928 112.586 19.5078 112.665 19.4002C112.744 19.2908 112.795 19.168 112.819 19.0318C112.839 18.9443 112.85 18.8484 112.852 18.7441C112.853 18.6381 112.854 18.5591 112.854 18.5069L112.995 18.5801C112.869 18.5969 112.732 18.6137 112.584 18.6306C112.438 18.6474 112.293 18.6667 112.15 18.6886C112.009 18.7105 111.881 18.7365 111.767 18.7668C111.689 18.7887 111.614 18.8198 111.542 18.8602C111.47 18.8989 111.41 18.951 111.363 19.0166C111.317 19.0822 111.295 19.1638 111.295 19.2614C111.295 19.3405 111.314 19.417 111.353 19.491C111.393 19.565 111.457 19.6264 111.545 19.6752C111.634 19.724 111.751 19.7484 111.898 19.7484ZM115.932 19.9932V18.6028C115.932 18.4514 115.917 18.3126 115.889 18.1865C115.86 18.0586 115.814 17.9476 115.75 17.8534C115.688 17.7575 115.606 17.6835 115.505 17.6313C115.406 17.5792 115.285 17.5531 115.142 17.5531C115.011 17.5531 114.895 17.5758 114.794 17.6212C114.694 17.6667 114.61 17.7323 114.541 17.8181C114.474 17.9022 114.423 18.0048 114.387 18.1259C114.352 18.247 114.335 18.385 114.335 18.5397L114.072 18.4817C114.072 18.2024 114.121 17.9678 114.218 17.7777C114.316 17.5876 114.451 17.4438 114.622 17.3462C114.794 17.2486 114.991 17.1998 115.213 17.1998C115.376 17.1998 115.518 17.2251 115.639 17.2755C115.762 17.326 115.865 17.3941 115.949 17.4799C116.035 17.5657 116.104 17.6641 116.156 17.7752C116.208 17.8845 116.246 18.0014 116.27 18.1259C116.293 18.2487 116.305 18.3715 116.305 18.4943V19.9932H115.932ZM113.961 19.9932V17.268H114.297V17.9392H114.335V19.9932H113.961ZM118.087 20.0689C117.833 20.0689 117.616 20.0058 117.436 19.8796C117.256 19.7518 117.118 19.5793 117.022 19.3623C116.926 19.1453 116.878 18.9006 116.878 18.628C116.878 18.3572 116.925 18.1133 117.019 17.8963C117.115 17.6793 117.252 17.5077 117.431 17.3815C117.609 17.2554 117.823 17.1923 118.071 17.1923C118.327 17.1923 118.543 17.2545 118.717 17.379C118.892 17.5035 119.024 17.6742 119.114 17.8912C119.204 18.1066 119.25 18.3522 119.25 18.628C119.25 18.8989 119.205 19.1436 119.116 19.3623C119.027 19.5793 118.896 19.7518 118.723 19.8796C118.549 20.0058 118.337 20.0689 118.087 20.0689ZM118.124 19.7232C118.318 19.7232 118.478 19.6761 118.604 19.5819C118.73 19.4877 118.824 19.3581 118.887 19.1933C118.949 19.0267 118.98 18.8383 118.98 18.628C118.98 18.4144 118.949 18.226 118.887 18.0628C118.824 17.898 118.73 17.7693 118.604 17.6767C118.479 17.5842 118.322 17.538 118.132 17.538C117.937 17.538 117.775 17.5859 117.648 17.6818C117.52 17.7777 117.425 17.9081 117.362 18.0729C117.302 18.2378 117.272 18.4228 117.272 18.628C117.272 18.835 117.303 19.0217 117.365 19.1882C117.429 19.3531 117.524 19.4835 117.65 19.5793C117.776 19.6752 117.934 19.7232 118.124 19.7232ZM118.98 19.9932V17.9417H118.94V16.3596H119.313V19.9932H118.98ZM97.5758 29.0689C97.3705 29.0689 97.1981 29.0319 97.0585 28.9578C96.9205 28.8838 96.8171 28.7854 96.7481 28.6626C96.6791 28.5398 96.6447 28.4061 96.6447 28.2614C96.6447 28.1134 96.6741 27.9872 96.733 27.8829C96.7935 27.7769 96.8751 27.6903 96.9777 27.623C97.082 27.5557 97.2023 27.5044 97.3386 27.4691C97.4765 27.4354 97.6288 27.406 97.7953 27.3808C97.9635 27.3538 98.1275 27.3311 98.2873 27.3126C98.4488 27.2924 98.5901 27.2731 98.7113 27.2546L98.58 27.3353C98.5851 27.0662 98.5329 26.8668 98.4236 26.7373C98.3143 26.6078 98.1242 26.543 97.8533 26.543C97.6666 26.543 97.5085 26.5851 97.3789 26.6692C97.2511 26.7533 97.1611 26.8862 97.1089 27.0679L96.7481 26.9619C96.8104 26.718 96.9357 26.5287 97.1241 26.3941C97.3125 26.2596 97.5573 26.1923 97.8584 26.1923C98.1073 26.1923 98.3185 26.2394 98.4917 26.3336C98.6667 26.4261 98.7903 26.5607 98.8627 26.7373C98.8963 26.8164 98.9182 26.9047 98.9283 27.0023C98.9384 27.0998 98.9434 27.1991 98.9434 27.3V28.9932H98.6129V28.3093L98.7087 28.3497C98.6162 28.5835 98.4724 28.7619 98.2772 28.8847C98.0821 29.0075 97.8483 29.0689 97.5758 29.0689ZM97.6187 28.7484C97.7919 28.7484 97.9433 28.7173 98.0729 28.655C98.2024 28.5928 98.3067 28.5078 98.3858 28.4002C98.4648 28.2908 98.5161 28.168 98.5397 28.0318C98.5599 27.9443 98.5708 27.8484 98.5725 27.7441C98.5742 27.6381 98.575 27.5591 98.575 27.5069L98.7163 27.5801C98.5901 27.5969 98.453 27.6137 98.305 27.6306C98.1587 27.6474 98.014 27.6667 97.871 27.6886C97.7297 27.7105 97.6018 27.7365 97.4874 27.7668C97.4101 27.7887 97.3352 27.8198 97.2629 27.8602C97.1905 27.8989 97.1308 27.951 97.0837 28.0166C97.0383 28.0822 97.0156 28.1638 97.0156 28.2614C97.0156 28.3405 97.0349 28.417 97.0736 28.491C97.114 28.565 97.1779 28.6264 97.2654 28.6752C97.3545 28.724 97.4723 28.7484 97.6187 28.7484ZM100.908 29.0689C100.658 29.0689 100.446 29.0058 100.272 28.8796C100.099 28.7518 99.9679 28.5793 99.8787 28.3623C99.7896 28.1436 99.745 27.8989 99.745 27.628C99.745 27.3522 99.7896 27.1066 99.8787 26.8912C99.9695 26.6742 100.102 26.5035 100.277 26.379C100.452 26.2545 100.668 26.1923 100.923 26.1923C101.172 26.1923 101.386 26.2554 101.564 26.3815C101.743 26.5077 101.879 26.6793 101.973 26.8963C102.069 27.1133 102.117 27.3572 102.117 27.628C102.117 27.9006 102.069 28.1453 101.973 28.3623C101.877 28.5793 101.739 28.7518 101.559 28.8796C101.379 29.0058 101.162 29.0689 100.908 29.0689ZM99.6819 30.2044V26.268H100.015V28.3194H100.055V30.2044H99.6819ZM100.87 28.7232C101.06 28.7232 101.219 28.6752 101.345 28.5793C101.471 28.4835 101.565 28.3531 101.627 28.1882C101.691 28.0217 101.723 27.835 101.723 27.628C101.723 27.4228 101.692 27.2378 101.63 27.0729C101.568 26.9081 101.473 26.7777 101.345 26.6818C101.219 26.5859 101.058 26.538 100.863 26.538C100.673 26.538 100.515 26.5842 100.388 26.6767C100.264 26.7693 100.171 26.898 100.108 27.0628C100.046 27.226 100.015 27.4144 100.015 27.628C100.015 27.8383 100.046 28.0267 100.108 28.1933C100.171 28.3581 100.265 28.4877 100.391 28.5819C100.517 28.6761 100.677 28.7232 100.87 28.7232ZM103.979 29.0689C103.728 29.0689 103.516 29.0058 103.343 28.8796C103.17 28.7518 103.039 28.5793 102.949 28.3623C102.86 28.1436 102.816 27.8989 102.816 27.628C102.816 27.3522 102.86 27.1066 102.949 26.8912C103.04 26.6742 103.173 26.5035 103.348 26.379C103.523 26.2545 103.738 26.1923 103.994 26.1923C104.243 26.1923 104.457 26.2554 104.635 26.3815C104.813 26.5077 104.95 26.6793 105.044 26.8963C105.14 27.1133 105.188 27.3572 105.188 27.628C105.188 27.9006 105.14 28.1453 105.044 28.3623C104.948 28.5793 104.81 28.7518 104.63 28.8796C104.45 29.0058 104.233 29.0689 103.979 29.0689ZM102.753 30.2044V26.268H103.086V28.3194H103.126V30.2044H102.753ZM103.941 28.7232C104.131 28.7232 104.289 28.6752 104.415 28.5793C104.542 28.4835 104.636 28.3531 104.698 28.1882C104.762 28.0217 104.794 27.835 104.794 27.628C104.794 27.4228 104.763 27.2378 104.701 27.0729C104.638 26.9081 104.543 26.7777 104.415 26.6818C104.289 26.5859 104.129 26.538 103.934 26.538C103.743 26.538 103.585 26.5842 103.459 26.6767C103.335 26.7693 103.241 26.898 103.179 27.0628C103.117 27.226 103.086 27.4144 103.086 27.628C103.086 27.8383 103.117 28.0267 103.179 28.1933C103.241 28.3581 103.335 28.4877 103.462 28.5819C103.588 28.6761 103.748 28.7232 103.941 28.7232ZM105.876 28.9932V25.2839H106.247V28.9932H105.876ZM107.476 30.2044L108.004 28.7736L108.011 29.1976L106.818 26.268H107.211L108.191 28.7181H108.029L108.932 26.268H109.311L107.847 30.2044H107.476Z" fill="#475569"/>
<path d="M173.639 19.9932L172.387 16.3596H172.773L173.881 19.5718L174.997 16.3596H175.383L174.131 19.9932H173.639ZM175.797 16.7507V16.3343H176.168V16.7507H175.797ZM175.797 19.9932V17.268H176.168V19.9932H175.797ZM178.162 20.0689C177.896 20.0689 177.666 20.01 177.47 19.8922C177.277 19.7745 177.126 19.6088 177.019 19.3951C176.911 19.1815 176.857 18.9308 176.857 18.6432C176.857 18.3454 176.91 18.088 177.016 17.871C177.122 17.654 177.271 17.4867 177.463 17.3689C177.656 17.2511 177.884 17.1923 178.147 17.1923C178.416 17.1923 178.646 17.2545 178.836 17.379C179.026 17.5018 179.17 17.6784 179.267 17.9089C179.365 18.1394 179.409 18.4144 179.401 18.734H179.022V18.6028C179.016 18.2495 178.939 17.9829 178.793 17.8029C178.648 17.6229 178.436 17.5329 178.157 17.5329C177.864 17.5329 177.64 17.628 177.483 17.8181C177.328 18.0081 177.251 18.279 177.251 18.6306C177.251 18.9737 177.328 19.2404 177.483 19.4305C177.64 19.6189 177.861 19.7131 178.147 19.7131C178.342 19.7131 178.512 19.6685 178.656 19.5793C178.803 19.4885 178.918 19.3581 179.002 19.1882L179.348 19.322C179.24 19.5592 179.081 19.7434 178.871 19.8746C178.662 20.0041 178.426 20.0689 178.162 20.0689ZM177.12 18.734V18.4237H179.201V18.734H177.12ZM180.527 19.9932L179.694 17.2654L180.065 17.268L180.711 19.385L181.359 17.268H181.698L182.346 19.385L182.997 17.268H183.365L182.533 19.9932H182.21L181.528 17.8231L180.85 19.9932H180.527ZM186.016 20.0663C185.696 20.0663 185.433 19.9974 185.226 19.8594C185.02 19.7215 184.894 19.5297 184.847 19.2841L185.226 19.221C185.266 19.3758 185.358 19.4994 185.501 19.592C185.645 19.6828 185.824 19.7282 186.036 19.7282C186.243 19.7282 186.406 19.6853 186.525 19.5995C186.645 19.512 186.704 19.3935 186.704 19.2437C186.704 19.1596 186.685 19.0915 186.646 19.0393C186.609 18.9855 186.533 18.9359 186.417 18.8905C186.301 18.845 186.127 18.7912 185.897 18.729C185.65 18.6617 185.456 18.5944 185.317 18.5271C185.177 18.4598 185.078 18.3824 185.019 18.295C184.96 18.2058 184.93 18.0973 184.93 17.9695C184.93 17.8147 184.974 17.6793 185.062 17.5632C185.149 17.4454 185.27 17.3546 185.425 17.2907C185.58 17.2251 185.76 17.1923 185.965 17.1923C186.17 17.1923 186.354 17.2259 186.515 17.2932C186.678 17.3588 186.81 17.4513 186.909 17.5708C187.008 17.6902 187.067 17.829 187.085 17.9871L186.707 18.0552C186.682 17.8954 186.602 17.7693 186.467 17.6767C186.334 17.5825 186.165 17.5338 185.96 17.5304C185.767 17.5253 185.609 17.5624 185.488 17.6414C185.367 17.7188 185.306 17.8223 185.306 17.9518C185.306 18.0241 185.328 18.0864 185.372 18.1385C185.416 18.189 185.495 18.2369 185.609 18.2823C185.725 18.3278 185.89 18.3774 186.104 18.4312C186.354 18.4951 186.551 18.5624 186.694 18.6331C186.837 18.7037 186.939 18.787 187 18.8829C187.06 18.9788 187.09 19.0974 187.09 19.2387C187.09 19.4961 186.995 19.6988 186.803 19.8468C186.613 19.9932 186.35 20.0663 186.016 20.0663ZM189.218 19.9932C189.065 20.0251 188.913 20.0377 188.764 20.031C188.616 20.0243 188.483 19.9923 188.365 19.9351C188.249 19.8779 188.161 19.7888 188.1 19.6677C188.051 19.5667 188.024 19.4649 188.019 19.3623C188.016 19.258 188.014 19.1394 188.014 19.0065V16.511H188.383V18.9914C188.383 19.1058 188.384 19.2017 188.385 19.2791C188.389 19.3548 188.406 19.4221 188.438 19.4809C188.499 19.5936 188.595 19.6609 188.726 19.6828C188.859 19.7047 189.023 19.6996 189.218 19.6677V19.9932ZM187.431 17.5859V17.268H189.218V17.5859H187.431ZM190.619 20.0689C190.413 20.0689 190.241 20.0319 190.101 19.9578C189.963 19.8838 189.86 19.7854 189.791 19.6626C189.722 19.5398 189.688 19.4061 189.688 19.2614C189.688 19.1134 189.717 18.9872 189.776 18.8829C189.836 18.7769 189.918 18.6903 190.021 18.623C190.125 18.5557 190.245 18.5044 190.381 18.4691C190.519 18.4354 190.672 18.406 190.838 18.3808C191.006 18.3538 191.17 18.3311 191.33 18.3126C191.492 18.2924 191.633 18.2731 191.754 18.2546L191.623 18.3353C191.628 18.0662 191.576 17.8668 191.466 17.7373C191.357 17.6078 191.167 17.543 190.896 17.543C190.709 17.543 190.551 17.5851 190.422 17.6692C190.294 17.7533 190.204 17.8862 190.152 18.0679L189.791 17.9619C189.853 17.718 189.979 17.5287 190.167 17.3941C190.355 17.2596 190.6 17.1923 190.901 17.1923C191.15 17.1923 191.361 17.2394 191.535 17.3336C191.71 17.4261 191.833 17.5607 191.906 17.7373C191.939 17.8164 191.961 17.9047 191.971 18.0023C191.981 18.0998 191.986 18.1991 191.986 18.3V19.9932H191.656V19.3093L191.752 19.3497C191.659 19.5835 191.515 19.7619 191.32 19.8847C191.125 20.0075 190.891 20.0689 190.619 20.0689ZM190.662 19.7484C190.835 19.7484 190.986 19.7173 191.116 19.655C191.245 19.5928 191.35 19.5078 191.429 19.4002C191.508 19.2908 191.559 19.168 191.583 19.0318C191.603 18.9443 191.614 18.8484 191.615 18.7441C191.617 18.6381 191.618 18.5591 191.618 18.5069L191.759 18.5801C191.633 18.5969 191.496 18.6137 191.348 18.6306C191.202 18.6474 191.057 18.6667 190.914 18.6886C190.773 18.7105 190.645 18.7365 190.53 18.7668C190.453 18.7887 190.378 18.8198 190.306 18.8602C190.233 18.8989 190.174 18.951 190.127 19.0166C190.081 19.0822 190.058 19.1638 190.058 19.2614C190.058 19.3405 190.078 19.417 190.116 19.491C190.157 19.565 190.221 19.6264 190.308 19.6752C190.397 19.724 190.515 19.7484 190.662 19.7484ZM194.211 19.9932C194.058 20.0251 193.907 20.0377 193.757 20.031C193.609 20.0243 193.476 19.9923 193.358 19.9351C193.242 19.8779 193.154 19.7888 193.093 19.6677C193.044 19.5667 193.017 19.4649 193.012 19.3623C193.009 19.258 193.007 19.1394 193.007 19.0065V16.511H193.376V18.9914C193.376 19.1058 193.377 19.2017 193.378 19.2791C193.382 19.3548 193.399 19.4221 193.431 19.4809C193.492 19.5936 193.588 19.6609 193.719 19.6828C193.852 19.7047 194.016 19.6996 194.211 19.6677V19.9932ZM192.424 17.5859V17.268H194.211V17.5859H192.424ZM195.874 20.0613C195.711 20.0613 195.568 20.0361 195.445 19.9856C195.324 19.9351 195.221 19.867 195.135 19.7812C195.051 19.6954 194.983 19.5978 194.93 19.4885C194.878 19.3775 194.84 19.2606 194.817 19.1378C194.793 19.0133 194.782 18.8896 194.782 18.7668V17.268H195.155V18.6583C195.155 18.808 195.169 18.9468 195.198 19.0747C195.227 19.2025 195.272 19.3144 195.334 19.4103C195.398 19.5045 195.48 19.5777 195.579 19.6298C195.68 19.682 195.802 19.708 195.945 19.708C196.076 19.708 196.191 19.6853 196.291 19.6399C196.391 19.5945 196.476 19.5297 196.543 19.4456C196.612 19.3598 196.664 19.2564 196.699 19.1352C196.735 19.0124 196.752 18.8745 196.752 18.7214L197.015 18.7794C197.015 19.0587 196.966 19.2934 196.868 19.4835C196.771 19.6735 196.636 19.8174 196.465 19.9149C196.293 20.0125 196.096 20.0613 195.874 20.0613ZM196.79 19.9932V19.322H196.752V17.268H197.123V19.9932H196.79ZM198.93 20.0663C198.61 20.0663 198.347 19.9974 198.14 19.8594C197.934 19.7215 197.808 19.5297 197.761 19.2841L198.14 19.221C198.18 19.3758 198.272 19.4994 198.415 19.592C198.559 19.6828 198.738 19.7282 198.95 19.7282C199.157 19.7282 199.32 19.6853 199.439 19.5995C199.559 19.512 199.618 19.3935 199.618 19.2437C199.618 19.1596 199.599 19.0915 199.56 19.0393C199.523 18.9855 199.447 18.9359 199.331 18.8905C199.215 18.845 199.041 18.7912 198.811 18.729C198.564 18.6617 198.37 18.5944 198.231 18.5271C198.091 18.4598 197.992 18.3824 197.933 18.295C197.874 18.2058 197.844 18.0973 197.844 17.9695C197.844 17.8147 197.888 17.6793 197.976 17.5632C198.063 17.4454 198.184 17.3546 198.339 17.2907C198.494 17.2251 198.674 17.1923 198.879 17.1923C199.084 17.1923 199.268 17.2259 199.429 17.2932C199.592 17.3588 199.724 17.4513 199.823 17.5708C199.922 17.6902 199.981 17.829 199.999 17.9871L199.621 18.0552C199.596 17.8954 199.516 17.7693 199.381 17.6767C199.248 17.5825 199.079 17.5338 198.874 17.5304C198.681 17.5253 198.523 17.5624 198.402 17.6414C198.281 17.7188 198.22 17.8223 198.22 17.9518C198.22 18.0241 198.242 18.0864 198.286 18.1385C198.33 18.189 198.409 18.2369 198.523 18.2823C198.639 18.3278 198.804 18.3774 199.018 18.4312C199.268 18.4951 199.465 18.5624 199.608 18.6331C199.751 18.7037 199.853 18.787 199.914 18.8829C199.974 18.9788 200.004 19.0974 200.004 19.2387C200.004 19.4961 199.909 19.6988 199.717 19.8468C199.527 19.9932 199.264 20.0663 198.93 20.0663Z" fill="#475569"/>
<rect x="27.0532" y="6.48926" width="69.0851" height="0.865269" fill="#199226"/>
<rect x="109.956" y="6.48926" width="69.0851" height="0.865269" fill="#199226"/>
<path d="M20.2663 12.1137C23.1279 12.1137 25.4477 9.78933 25.4477 6.92208C25.4477 4.05483 23.1279 1.73047 20.2663 1.73047C17.4047 1.73047 15.085 4.05483 15.085 6.92208C15.085 9.78933 17.4047 12.1137 20.2663 12.1137Z" fill="#199226" stroke="#199226" stroke-width="0.630833" stroke-linecap="round" stroke-linejoin="round"/>
<path d="M18.5391 6.92225L19.6905 8.07594L21.9933 5.76855" stroke="#F9F9F9" stroke-width="0.630833" stroke-linecap="round" stroke-linejoin="round"/>
<path d="M102.844 12.1137C105.706 12.1137 108.025 9.78933 108.025 6.92208C108.025 4.05483 105.706 1.73047 102.844 1.73047C99.9824 1.73047 97.6626 4.05483 97.6626 6.92208C97.6626 9.78933 99.9824 12.1137 102.844 12.1137Z" fill="#199226" stroke="#199226" stroke-width="0.630833" stroke-linecap="round" stroke-linejoin="round"/>
<path d="M101.117 6.92225L102.268 8.07594L104.571 5.76855" stroke="#F9F9F9" stroke-width="0.630833" stroke-linecap="round" stroke-linejoin="round"/>
<path d="M186.03 12.1137C188.891 12.1137 191.211 9.78933 191.211 6.92208C191.211 4.05483 188.891 1.73047 186.03 1.73047C183.168 1.73047 180.848 4.05483 180.848 6.92208C180.848 9.78933 183.168 12.1137 186.03 12.1137Z" fill="#199226" stroke="#199226" stroke-width="0.630833" stroke-linecap="round" stroke-linejoin="round"/>
<path d="M184.302 6.92225L185.454 8.07594L187.757 5.76855" stroke="#F9F9F9" stroke-width="0.630833" stroke-linecap="round" stroke-linejoin="round"/>
</svg>
