<svg width="21" height="21" viewBox="0 0 21 21" fill="none" xmlns="http://www.w3.org/2000/svg">
<mask id="mask0_64_824" style="mask-type:alpha" maskUnits="userSpaceOnUse" x="0" y="0" width="21" height="21">
<rect x="0.959961" y="0.920898" width="19.7301" height="19.7301" fill="#334155"/>
</mask>
<g mask="url(#mask0_64_824)">
<path d="M1.78198 17.3624V15.0605C1.78198 14.5947 1.90187 14.1665 2.14165 13.776C2.38142 13.3855 2.69998 13.0875 3.09732 12.882C3.94681 12.4572 4.81 12.1387 5.68689 11.9263C6.56378 11.7139 7.45438 11.6078 8.35867 11.6078C9.26296 11.6078 10.1536 11.7139 11.0304 11.9263C11.9073 12.1387 12.7705 12.4572 13.62 12.882C14.0174 13.0875 14.3359 13.3855 14.5757 13.776C14.8155 14.1665 14.9354 14.5947 14.9354 15.0605V17.3624H1.78198ZM16.5795 17.3624V14.8961C16.5795 14.2932 16.4117 13.7144 16.076 13.1594C15.7403 12.6045 15.2642 12.1284 14.6476 11.7311C15.3464 11.8133 16.0041 11.9537 16.6206 12.1524C17.2372 12.3511 17.8127 12.5943 18.347 12.882C18.8403 13.156 19.2171 13.4609 19.4774 13.7966C19.7377 14.1322 19.8679 14.4988 19.8679 14.8961V17.3624H16.5795ZM8.35867 10.7857C7.45438 10.7857 6.68024 10.4637 6.03628 9.81972C5.39231 9.17575 5.07033 8.40162 5.07033 7.49733C5.07033 6.59303 5.39231 5.8189 6.03628 5.17494C6.68024 4.53097 7.45438 4.20898 8.35867 4.20898C9.26296 4.20898 10.0371 4.53097 10.6811 5.17494C11.325 5.8189 11.647 6.59303 11.647 7.49733C11.647 8.40162 11.325 9.17575 10.6811 9.81972C10.0371 10.4637 9.26296 10.7857 8.35867 10.7857ZM16.5795 7.49733C16.5795 8.40162 16.2575 9.17575 15.6136 9.81972C14.9696 10.4637 14.1955 10.7857 13.2912 10.7857C13.1405 10.7857 12.9486 10.7685 12.7157 10.7343C12.4828 10.7 12.291 10.6624 12.1403 10.6213C12.5102 10.1828 12.7945 9.69641 12.9932 9.16205C13.1918 8.6277 13.2912 8.07279 13.2912 7.49733C13.2912 6.92187 13.1918 6.36696 12.9932 5.8326C12.7945 5.29825 12.5102 4.81185 12.1403 4.3734C12.3321 4.30489 12.5239 4.26036 12.7157 4.23981C12.9075 4.21926 13.0994 4.20898 13.2912 4.20898C14.1955 4.20898 14.9696 4.53097 15.6136 5.17494C16.2575 5.8189 16.5795 6.59303 16.5795 7.49733ZM3.42615 15.7182H13.2912V15.0605C13.2912 14.9098 13.2535 14.7728 13.1781 14.6495C13.1028 14.5262 13.0035 14.4303 12.8801 14.3617C12.1403 13.9918 11.3935 13.7144 10.64 13.5294C9.88638 13.3444 9.12595 13.2519 8.35867 13.2519C7.59139 13.2519 6.83096 13.3444 6.07738 13.5294C5.3238 13.7144 4.57707 13.9918 3.8372 14.3617C3.71388 14.4303 3.61455 14.5262 3.53919 14.6495C3.46383 14.7728 3.42615 14.9098 3.42615 15.0605V15.7182ZM8.35867 9.1415C8.81082 9.1415 9.19788 8.98051 9.51987 8.65852C9.84185 8.33654 10.0028 7.94948 10.0028 7.49733C10.0028 7.04518 9.84185 6.65812 9.51987 6.33613C9.19788 6.01415 8.81082 5.85316 8.35867 5.85316C7.90652 5.85316 7.51946 6.01415 7.19747 6.33613C6.87549 6.65812 6.7145 7.04518 6.7145 7.49733C6.7145 7.94948 6.87549 8.33654 7.19747 8.65852C7.51946 8.98051 7.90652 9.1415 8.35867 9.1415Z" fill="#334155"/>
</g>
</svg>
