<svg width="21" height="21" viewBox="0 0 21 21" fill="none" xmlns="http://www.w3.org/2000/svg">
<mask id="mask0_64_831" style="mask-type:alpha" maskUnits="userSpaceOnUse" x="0" y="0" width="21" height="21">
<rect x="0.72998" y="0.920898" width="19.7301" height="19.7301" fill="#D9D9D9"/>
</mask>
<g mask="url(#mask0_64_831)">
<path d="M10.595 10.7857C9.6907 10.7857 8.91657 10.4637 8.27261 9.81972C7.62864 9.17575 7.30665 8.40162 7.30665 7.49733C7.30665 6.59303 7.62864 5.8189 8.27261 5.17494C8.91657 4.53097 9.6907 4.20898 10.595 4.20898C11.4993 4.20898 12.2734 4.53097 12.9174 5.17494C13.5614 5.8189 13.8833 6.59303 13.8833 7.49733C13.8833 8.40162 13.5614 9.17575 12.9174 9.81972C12.2734 10.4637 11.4993 10.7857 10.595 10.7857ZM4.01831 17.3624V15.0605C4.01831 14.5947 4.1382 14.1665 4.37797 13.776C4.61775 13.3855 4.93631 13.0875 5.33365 12.882C6.18314 12.4572 7.04633 12.1387 7.92322 11.9263C8.80011 11.7139 9.6907 11.6078 10.595 11.6078C11.4993 11.6078 12.3899 11.7139 13.2668 11.9263C14.1437 12.1387 15.0069 12.4572 15.8563 12.882C16.2537 13.0875 16.5722 13.3855 16.812 13.776C17.0518 14.1665 17.1717 14.5947 17.1717 15.0605V17.3624H4.01831ZM5.66248 15.7182H15.5275V15.0605C15.5275 14.9098 15.4898 14.7728 15.4145 14.6495C15.3391 14.5262 15.2398 14.4303 15.1165 14.3617C14.3766 13.9918 13.6299 13.7144 12.8763 13.5294C12.1227 13.3444 11.3623 13.2519 10.595 13.2519C9.82772 13.2519 9.06729 13.3444 8.31371 13.5294C7.56013 13.7144 6.8134 13.9918 6.07353 14.3617C5.95021 14.4303 5.85088 14.5262 5.77552 14.6495C5.70016 14.7728 5.66248 14.9098 5.66248 15.0605V15.7182ZM10.595 9.1415C11.0471 9.1415 11.4342 8.98051 11.7562 8.65852C12.0782 8.33654 12.2392 7.94948 12.2392 7.49733C12.2392 7.04518 12.0782 6.65812 11.7562 6.33613C11.4342 6.01415 11.0471 5.85316 10.595 5.85316C10.1429 5.85316 9.75579 6.01415 9.4338 6.33613C9.11182 6.65812 8.95083 7.04518 8.95083 7.49733C8.95083 7.94948 9.11182 8.33654 9.4338 8.65852C9.75579 8.98051 10.1429 9.1415 10.595 9.1415Z" fill="#334155"/>
</g>
</svg>
